<?xml version="1.0" encoding="UTF-8"?><svg id="b" xmlns="http://www.w3.org/2000/svg" xmlns:xlink="http://www.w3.org/1999/xlink" viewBox="0 0 362.888 152.997"><defs><linearGradient id="d" x1="0" y1="76.499" x2="362.888" y2="76.499" gradientUnits="userSpaceOnUse"><stop offset="0" stop-color="#4222cc"/><stop offset=".027" stop-color="#42c"/><stop offset=".338" stop-color="#5622cc"/><stop offset=".659" stop-color="#6222cc"/><stop offset="1" stop-color="#62c"/></linearGradient><linearGradient id="e" x1="36.136" y1="45.231" x2="276.851" y2="113.613" gradientUnits="userSpaceOnUse"><stop offset="0" stop-color="#4222cc"/><stop offset=".671" stop-color="#5822cc"/><stop offset="1" stop-color="#62c"/></linearGradient></defs><g id="c"><rect x="7" y="7" width="348.888" height="138.997" rx="60" ry="60" style="fill:#fff; stroke:url(#d); stroke-miterlimit:10; stroke-width:14px;"/><path d="m49.829,40.393h43.272c3.024,0,5.676.552,7.956,1.656,2.279,1.104,4.164,2.568,5.652,4.392,1.487,1.825,2.604,3.9,3.348,6.228.744,2.329,1.116,4.716,1.116,7.164,0,2.641-.409,5.161-1.224,7.56-.817,2.401-2.028,4.512-3.636,6.336-1.608,1.825-3.612,3.276-6.012,4.356-2.401,1.08-5.184,1.62-8.352,1.62-1.872,0-3.396-.216-4.572-.648-1.177-.432-2.172-.899-2.988-1.404-.817-.504-1.512-.959-2.088-1.368-.576-.407-1.201-.612-1.872-.612-.288,0-.529.144-.72.432-.048.144-.072.313-.072.504,0,.769.479,1.62,1.44,2.557.959.936,2.196,1.812,3.708,2.628,1.512.816,3.191,1.512,5.04,2.088,1.847.576,3.636.864,5.364.864,2.927,0,5.172-.456,6.732-1.368,1.56-.911,2.748-1.848,3.564-2.809,2.255.48,4.104,2.029,5.544,4.645,1.44,2.616,2.16,5.988,2.16,10.116,0,3.408-.444,6.288-1.332,8.64-.889,2.353-2.016,4.261-3.384,5.724-1.368,1.465-2.856,2.521-4.464,3.168-1.609.648-3.157.973-4.644.973-3.504,0-6.397-1.093-8.676-3.276-2.28-2.184-4.14-4.932-5.58-8.244-1.44-3.312-2.568-6.912-3.384-10.8-.817-3.888-1.512-7.56-2.088-11.016v17.496c0,.673-.013,1.572-.036,2.699-.025,1.129.023,2.305.144,3.528.119,1.224.348,2.4.684,3.528.335,1.128.839,1.979,1.512,2.556.479.433.72.841.72,1.225,0,.575-.313.863-.936.863h-31.896c-.625,0-.936-.288-.936-.863,0-.384.24-.792.72-1.225.671-.576,1.175-1.428,1.512-2.556.335-1.128.564-2.305.684-3.528.119-1.224.167-2.399.144-3.528-.025-1.127-.036-2.026-.036-2.699v-43.201c0-.671.011-1.584.036-2.736.023-1.152-.025-2.34-.144-3.564-.12-1.224-.349-2.387-.684-3.492-.336-1.104-.84-1.944-1.512-2.52-.48-.432-.72-.839-.72-1.224,0-.576.312-.864.936-.864Zm29.808,32.112c0,.385.18.684.54.9.36.216.659.324.9.324.959,0,1.667-.72,2.124-2.16.456-1.44.767-3.096.936-4.968.167-1.872.24-3.696.216-5.472-.024-1.775-.036-3.024-.036-3.744,0-1.487-.097-3.107-.288-4.86-.192-1.751-.468-3.372-.828-4.86-.36-1.487-.769-2.724-1.224-3.708-.457-.983-.972-1.476-1.548-1.476-.336,0-.552.156-.648.468-.097.312-.144.588-.144.828v28.728Z" style="fill:url(#e); stroke-width:0px;"/><path d="m193.54,40.393c.624,0,.937.288.937.864,0,.385-.241.792-.72,1.224-.673.576-1.177,1.417-1.513,2.52-.336,1.105-.564,2.268-.684,3.492-.12,1.224-.169,2.412-.145,3.564s.036,2.064.036,2.736v43.201c0,.673-.012,1.572-.036,2.699-.024,1.129.024,2.305.145,3.528.119,1.224.348,2.4.684,3.528s.84,1.979,1.513,2.556c.479.433.72.841.72,1.225,0,.575-.312.863-.937.863h-31.896c-.624,0-.936-.288-.936-.863,0-.384.24-.792.72-1.225.671-.576,1.176-1.428,1.512-2.556.335-1.128.563-2.305.684-3.528.12-1.224.168-2.399.144-3.528-.024-1.127-.036-2.026-.036-2.699v-49.681c-.529,2.304-1.152,4.932-1.872,7.884-.72,2.952-1.476,6.084-2.268,9.396s-1.597,6.696-2.412,10.152c-.817,3.457-1.609,6.817-2.376,10.081-1.825,7.632-3.697,15.552-5.616,23.76-5.232-10.271-9.936-19.512-14.112-27.72-1.776-3.504-3.528-6.949-5.256-10.333-1.728-3.384-3.289-6.432-4.68-9.144-1.393-2.711-2.532-4.943-3.42-6.696-.889-1.751-1.38-2.747-1.476-2.988-.097.336-.144.804-.144,1.404v1.908c0,2.304.432,4.644,1.296,7.02.864,2.376,1.944,4.788,3.24,7.236,1.296,2.448,2.688,4.932,4.176,7.452,1.487,2.521,2.88,5.101,4.176,7.74,1.296,2.641,2.376,5.353,3.24,8.136.864,2.784,1.296,5.665,1.296,8.641,0,1.296-.097,2.556-.288,3.779-.192,1.225-.529,2.305-1.008,3.24-.48.937-1.092,1.692-1.836,2.269-.745.575-1.668.863-2.772.863h-15.408c-.625,0-.936-.288-.936-.863,0-.384.239-.792.72-1.225.672-.576,1.176-1.428,1.512-2.556.335-1.128.563-2.305.684-3.528.119-1.224.167-2.399.144-3.528-.025-1.127-.036-2.026-.036-2.699v-48.96l-3.384-6.624c-.336-.624-.385-1.116-.144-1.476.24-.36.695-.54,1.368-.54h24.552c1.152,0,1.967.504,2.448,1.512.047.097.288.564.72,1.404.432.84.972,1.908,1.62,3.204.648,1.296,1.379,2.748,2.196,4.356.815,1.609,1.656,3.252,2.52,4.932,2.016,3.936,4.271,8.352,6.768,13.248.864-3.791,1.703-7.391,2.52-10.8.335-1.44.684-2.927,1.044-4.464.36-1.536.708-3.024,1.044-4.464.335-1.44.659-2.772.972-3.996.312-1.224.563-2.268.756-3.132.335-1.199,1.104-1.8,2.304-1.8h27.936Z" style="fill:url(#e); stroke-width:0px;"/><path d="m221.475,69.985c-3.36-.239-6.42-.72-9.18-1.44-2.761-.72-5.124-1.692-7.092-2.916-1.969-1.224-3.481-2.7-4.536-4.428-1.057-1.728-1.584-3.672-1.584-5.832,0-3.071.936-5.652,2.808-7.74,1.872-2.088,4.26-3.78,7.164-5.076,2.903-1.296,6.107-2.22,9.612-2.772,3.503-.551,6.863-.828,10.08-.828s6.562.277,10.044.828c3.479.552,6.671,1.476,9.576,2.772,2.903,1.296,5.303,2.988,7.199,5.076,1.896,2.088,2.845,4.669,2.845,7.74,0,2.16-.54,4.104-1.62,5.832s-2.617,3.204-4.608,4.428c-1.992,1.224-4.368,2.196-7.128,2.916-2.761.72-5.82,1.201-9.18,1.44,2.399.241,5.015.841,7.848,1.8,2.832.96,5.447,2.34,7.848,4.14,2.4,1.8,4.403,4.057,6.013,6.768,1.607,2.713,2.412,5.94,2.412,9.685,0,3.504-.781,6.601-2.34,9.288-1.561,2.688-3.733,4.932-6.517,6.731-2.784,1.801-6.084,3.157-9.899,4.068-3.816.911-8.005,1.368-12.564,1.368-4.513,0-8.688-.457-12.528-1.368-3.841-.911-7.152-2.268-9.936-4.068-2.784-1.8-4.957-4.043-6.517-6.731-1.56-2.688-2.34-5.784-2.34-9.288,0-3.744.804-6.972,2.412-9.685,1.607-2.711,3.624-4.968,6.048-6.768,2.424-1.8,5.04-3.18,7.849-4.14,2.808-.959,5.411-1.56,7.812-1.8Zm7.272,41.616c.576,0,1.019-.527,1.332-1.584.312-1.055.54-2.495.684-4.319.145-1.824.239-3.972.288-6.444.047-2.472.072-5.1.072-7.884s-.025-5.4-.072-7.849c-.049-2.447-.144-4.583-.288-6.408-.144-1.824-.372-3.264-.684-4.32-.313-1.055-.756-1.584-1.332-1.584s-1.033.529-1.368,1.584c-.337,1.057-.589,2.497-.756,4.32-.169,1.825-.288,3.96-.36,6.408-.072,2.448-.107,5.065-.107,7.849s.035,5.412.107,7.884c.072,2.473.191,4.62.36,6.444.167,1.824.419,3.265.756,4.319.335,1.057.792,1.584,1.368,1.584Zm0-41.832c.432,0,.779-.384,1.044-1.152.263-.768.455-1.812.576-3.132.119-1.319.203-2.88.252-4.68.047-1.8.071-3.708.071-5.724s-.024-3.924-.071-5.724c-.049-1.8-.133-3.359-.252-4.68-.121-1.32-.313-2.364-.576-3.132-.265-.767-.612-1.152-1.044-1.152s-.769.385-1.008,1.152c-.241.769-.433,1.812-.576,3.132-.145,1.321-.241,2.88-.288,4.68-.049,1.8-.072,3.708-.072,5.724s.023,3.924.072,5.724c.047,1.8.144,3.36.288,4.68.144,1.321.335,2.365.576,3.132.239.768.575,1.152,1.008,1.152Z" style="fill:url(#e); stroke-width:0px;"/><path d="m288.146,58.393c2.736,0,5.58.205,8.532.612,2.952.409,5.653,1.044,8.101,1.908,2.447.864,4.463,1.992,6.047,3.384,1.584,1.393,2.377,3.096,2.377,5.112,0,1.152-.252,2.16-.756,3.024-.504.864-1.152,1.584-1.943,2.16-.793.576-1.682,1.02-2.664,1.332-.984.312-1.957.468-2.916.468-2.354,0-4.5-.384-6.445-1.152-1.943-.768-3.696-1.728-5.256-2.88-1.561-1.152-3-2.399-4.32-3.744-1.32-1.343-2.544-2.592-3.672-3.744s-2.208-2.112-3.239-2.88c-1.033-.768-2.053-1.152-3.061-1.152-1.249,0-2.076.276-2.483.828-.409.553-.612,1.092-.612,1.62,0,1.92.96,3.612,2.88,5.076,1.919,1.464,4.32,2.869,7.2,4.212,2.88,1.344,5.999,2.712,9.359,4.104,3.36,1.393,6.481,2.977,9.36,4.752,2.881,1.776,5.279,3.853,7.201,6.229,1.918,2.376,2.879,5.22,2.879,8.531,0,2.736-.611,5.197-1.836,7.381-1.225,2.185-2.941,4.031-5.148,5.544-2.207,1.512-4.848,2.676-7.92,3.491-3.072.816-6.456,1.225-10.151,1.225-3.024,0-6.133-.145-9.324-.433-3.193-.287-6.097-.889-8.712-1.8-2.617-.911-4.777-2.195-6.48-3.852-1.704-1.656-2.556-3.876-2.556-6.66,0-.768.155-1.548.468-2.34.312-.792.815-1.512,1.512-2.16.695-.648,1.608-1.176,2.736-1.584,1.127-.407,2.484-.612,4.068-.612,1.775,0,3.516.433,5.22,1.296,1.703.864,3.348,1.933,4.932,3.204,1.584,1.272,3.107,2.653,4.572,4.141,1.464,1.488,2.855,2.868,4.176,4.14,1.32,1.272,2.557,2.34,3.708,3.204,1.152.864,2.208,1.296,3.168,1.296,1.009,0,1.645-.275,1.908-.828.264-.551.396-1.02.396-1.404,0-2.351-.912-4.367-2.736-6.048-1.825-1.68-4.104-3.228-6.84-4.644-2.736-1.415-5.7-2.809-8.893-4.176-3.192-1.368-6.155-2.916-8.892-4.645-2.736-1.728-5.017-3.744-6.84-6.048-1.825-2.304-2.736-5.112-2.736-8.424,0-3.024.708-5.616,2.124-7.776,1.415-2.16,3.312-3.924,5.688-5.292,2.376-1.368,5.111-2.376,8.208-3.024,3.096-.648,6.3-.972,9.611-.972Z" style="fill:url(#e); stroke-width:0px;"/></g></svg>