<?xml version="1.0" encoding="UTF-8"?><svg id="b" xmlns="http://www.w3.org/2000/svg" xmlns:xlink="http://www.w3.org/1999/xlink" viewBox="0 0 146.864 146.864"><defs><linearGradient id="d" x1="0" y1="73.432" x2="146.864" y2="73.432" gradientUnits="userSpaceOnUse"><stop offset=".001" stop-color="#42c"/><stop offset="1" stop-color="#62c"/></linearGradient><linearGradient id="e" x1="31.078" y1="63.523" x2="100.093" y2="83.129" gradientUnits="userSpaceOnUse"><stop offset="0" stop-color="#4222cc"/><stop offset=".671" stop-color="#5822cc"/><stop offset="1" stop-color="#62c"/></linearGradient></defs><g id="c"><rect x="7" y="7" width="132.864" height="132.864" rx="60" ry="60" style="fill:#fff; stroke:url(#d); stroke-miterlimit:10; stroke-width:14px;"/><path d="m42.581,37.327h43.272c3.023,0,5.676.552,7.956,1.656,2.279,1.104,4.163,2.568,5.651,4.392,1.487,1.825,2.604,3.9,3.349,6.228.743,2.329,1.116,4.716,1.116,7.164,0,2.641-.409,5.161-1.225,7.56-.816,2.401-2.028,4.512-3.636,6.336-1.608,1.825-3.612,3.276-6.012,4.356-2.401,1.08-5.185,1.62-8.353,1.62-1.872,0-3.396-.216-4.572-.648-1.177-.432-2.172-.899-2.987-1.404-.817-.504-1.513-.959-2.088-1.368-.576-.407-1.201-.612-1.873-.612-.288,0-.529.144-.72.432-.048.144-.072.313-.072.504,0,.769.479,1.62,1.44,2.557.96.936,2.196,1.812,3.708,2.628,1.513.816,3.191,1.512,5.04,2.088,1.848.576,3.636.864,5.364.864,2.927,0,5.172-.456,6.731-1.368,1.56-.911,2.748-1.848,3.564-2.809,2.256.48,4.104,2.029,5.544,4.645,1.44,2.616,2.16,5.988,2.16,10.116,0,3.408-.444,6.288-1.332,8.64-.889,2.353-2.016,4.261-3.384,5.724-1.368,1.465-2.856,2.521-4.464,3.168-1.609.648-3.157.973-4.645.973-3.504,0-6.396-1.093-8.676-3.276-2.28-2.184-4.14-4.932-5.58-8.244-1.44-3.312-2.568-6.912-3.384-10.8-.817-3.888-1.513-7.56-2.088-11.016v17.496c0,.673-.013,1.572-.036,2.699-.025,1.129.023,2.305.144,3.528.119,1.224.348,2.4.684,3.528.335,1.128.839,1.979,1.512,2.556.479.433.72.841.72,1.225,0,.575-.312.863-.936.863h-31.896c-.625,0-.936-.288-.936-.863,0-.384.24-.792.72-1.225.671-.576,1.175-1.428,1.512-2.556.335-1.128.564-2.305.684-3.528.119-1.224.167-2.399.144-3.528-.025-1.127-.036-2.026-.036-2.699v-43.201c0-.671.011-1.584.036-2.736.023-1.152-.025-2.34-.144-3.564-.12-1.224-.349-2.387-.684-3.492-.336-1.104-.84-1.944-1.512-2.52-.48-.432-.72-.839-.72-1.224,0-.576.312-.864.936-.864Zm29.808,32.112c0,.385.18.684.54.9.36.216.659.324.9.324.96,0,1.667-.72,2.124-2.16.456-1.44.768-3.096.937-4.968.167-1.872.239-3.696.216-5.472-.024-1.775-.036-3.024-.036-3.744,0-1.487-.097-3.107-.288-4.86-.192-1.751-.468-3.372-.828-4.86-.359-1.487-.769-2.724-1.224-3.708-.457-.983-.973-1.476-1.548-1.476-.336,0-.552.156-.648.468-.097.312-.144.588-.144.828v28.728Z" style="fill:url(#e); stroke-width:0px;"/></g></svg>